<svg xmlns="http://www.w3.org/2000/svg" viewBox="0 0 50 70"><path fill="#FFF" d="M5 69c-2.2 0-4-1.8-4-4V5c0-2.2 1.8-4 4-4h40c2.2 0 4 1.8 4 4v60c0 2.2-1.8 4-4 4H5z"/><path d="M45 2c1.7 0 3 1.3 3 3v60c0 1.7-1.3 3-3 3H5c-1.7 0-3-1.3-3-3V5c0-1.7 1.3-3 3-3h40m0-2H5C2.2 0 0 2.2 0 5v60c0 2.8 2.2 5 5 5h40c2.8 0 5-2.2 5-5V5c0-2.8-2.2-5-5-5z"/><path d="M6.4 15.2v1.6H2.8v-1.6H4L6.2 3.4h2l2.2 11.8h1.2v1.6H8v-1.6h.8l-.3-1.4H5.9l-.3 1.4h.8zm-.2-3h2.1l-1-5.5-1.1 5.5zM44.6 9.1c.8 0 1.5.3 2.1.9.6.6.9 1.3.9 2.1s-.3 1.5-.9 2.1c-.6.6-1.3.9-2.1.9-.7 0-1.4-.2-2-.7-.6-.5-.9-1.1-1-1.9h-.4c0 1.9.4 3.4 1.2 4.7h-3.3c.8-1.2 1.2-2.8 1.2-4.7h-.4c-.1.7-.4 1.4-1 1.9s-1.2.7-2 .7-1.5-.3-2.1-.9-.8-1.2-.8-2.1c0-.8.3-1.5.9-2.1.6-.6 1.3-.9 2.1-.9s1.5.3 2 .8l.3-.5c-.5-.3-.9-.7-1.2-1.2-.3-.5-.4-1-.4-1.6 0-.9.3-1.6.9-2.2.6-.6 1.4-.9 2.2-.9s1.6.3 2.2.9c.6.7 1 1.4 1 2.3 0 .6-.1 1.1-.4 1.6-.3.5-.7.9-1.2 1.2l.3.5c.5-.6 1.2-.9 1.9-.9z"/><g><path d="M34.6 39.4c2.1 0 3.8.7 5.3 2.2 1.5 1.5 2.2 3.2 2.2 5.3 0 2.1-.7 3.8-2.2 5.3s-3.2 2.2-5.3 2.2c-1.9 0-3.5-.6-4.9-1.9-1.4-1.2-2.3-2.8-2.5-4.7h-1c.1 4.7 1.1 8.6 3 11.7h-8.3c1.9-3.1 2.9-7 3-11.7h-1c-.2 1.9-1.1 3.4-2.5 4.7-1.4 1.2-3.1 1.9-4.9 1.9-2.1 0-3.8-.7-5.3-2.2C8.7 50.7 8 49 8 46.9c0-2.1.7-3.8 2.2-5.3 1.5-1.5 3.2-2.2 5.3-2.2 2 0 3.7.7 5.1 2l.7-1.2c-1.3-.7-2.3-1.7-3-2.9-.7-1.3-1.1-2.6-1.1-4 0-2.2.8-4 2.3-5.6 1.5-1.5 3.4-2.3 5.6-2.3 2.2 0 4 .8 5.6 2.3 1.5 1.5 2.3 3.4 2.3 5.6 0 1.4-.4 2.7-1.1 4-.7 1.3-1.7 2.2-3 2.9l.7 1.2c1.3-1.3 3-2 5-2z"/></g></svg>