<svg xmlns="http://www.w3.org/2000/svg" viewBox="0 0 50 70"><path fill="#FFF" d="M5 69c-2.2 0-4-1.8-4-4V5c0-2.2 1.8-4 4-4h40c2.2 0 4 1.8 4 4v60c0 2.2-1.8 4-4 4H5z"/><path d="M45 2c1.7 0 3 1.3 3 3v60c0 1.7-1.3 3-3 3H5c-1.7 0-3-1.3-3-3V5c0-1.7 1.3-3 3-3h40m0-2H5C2.2 0 0 2.2 0 5v60c0 2.8 2.2 5 5 5h40c2.8 0 5-2.2 5-5V5c0-2.8-2.2-5-5-5z"/><path d="M9.7 11.9c-.7.6-1.6.9-2.5.9-1.3 0-2.3-.5-3.2-1.5-.8-1-1.2-2.1-1.2-3.3 0-1.3.4-2.4 1.2-3.3.8-1 1.9-1.5 3.2-1.5 1.6 0 2.7.8 3.5 2.4.6 1.2.9 2.7.9 4.5 0 1.8-.3 3.4-.9 4.6-.8 1.6-2 2.4-3.6 2.4s-2.9-.8-3.8-2.5l1.5-.9c.6 1.1 1.4 1.6 2.3 1.6 1.4-.1 2.3-1.2 2.6-3.4zm-2.5-7c-.8 0-1.4.3-1.9 1-.5.6-.8 1.3-.8 2.1s.2 1.5.7 2.1c.5.7 1.2 1 1.9 1s1.2-.3 1.7-.8c.4-.4.7-1 .9-1.7-.3-2.5-1.1-3.7-2.5-3.7zM44.6 9.1c.8 0 1.5.3 2.1.9.6.6.9 1.3.9 2.1s-.3 1.5-.9 2.1c-.6.6-1.3.9-2.1.9-.7 0-1.4-.2-2-.7-.6-.5-.9-1.1-1-1.9h-.4c0 1.9.4 3.4 1.2 4.7h-3.3c.8-1.2 1.2-2.8 1.2-4.7h-.4c-.1.7-.4 1.4-1 1.9s-1.2.7-2 .7-1.5-.3-2.1-.9-.8-1.2-.8-2.1c0-.8.3-1.5.9-2.1.6-.6 1.3-.9 2.1-.9s1.5.3 2 .8l.3-.5c-.5-.3-.9-.7-1.2-1.2-.3-.5-.4-1-.4-1.6 0-.9.3-1.6.9-2.2.6-.6 1.4-.9 2.2-.9s1.6.3 2.2.9c.6.7 1 1.4 1 2.3 0 .6-.1 1.1-.4 1.6-.3.5-.7.9-1.2 1.2l.3.5c.5-.6 1.2-.9 1.9-.9z"/><g><path d="M27.4 41.7c.5 0 1 .2 1.3.6.4.4.5.8.5 1.3s-.2 1-.5 1.3c-.4.4-.8.5-1.3.5s-.9-.2-1.2-.5c-.4-.3-.6-.7-.6-1.2h-.3c0 1.2.3 2.2.8 2.9H24c.5-.8.7-1.7.8-2.9h-.3c-.1.5-.3.9-.6 1.2-.4.3-.8.5-1.2.5-.5 0-1-.2-1.3-.5-.4-.4-.5-.8-.5-1.3s.2-1 .5-1.3.8-.6 1.3-.6.9.2 1.3.5l.2-.3c-.3-.2-.6-.4-.8-.7-.2-.3-.3-.6-.3-1 0-.5.2-1 .6-1.4.4-.4.9-.6 1.4-.6s1 .2 1.4.6c.4.4.6.9.6 1.4 0 .4-.1.7-.3 1s-.4.6-.8.7l.2.3c.3-.3.7-.5 1.2-.5zM39.9 41.8c.5 0 1 .2 1.3.5.4.4.5.8.5 1.3s-.2.9-.5 1.3c-.4.4-.8.5-1.3.5s-.9-.1-1.2-.4c-.4-.3-.6-.7-.6-1.1h-.3c0 1.1.3 2.1.8 2.8h-2.1c.5-.7.7-1.7.8-2.8H37c-.1.4-.3.8-.6 1.1-.4.3-.8.4-1.2.4-.5 0-1-.2-1.3-.5-.4-.4-.5-.8-.5-1.3s.2-.9.5-1.3.8-.5 1.3-.5.9.2 1.3.5l.2-.3c-.3-.2-.6-.4-.8-.7-.2-.3-.3-.6-.3-1 0-.5.2-1 .6-1.3.4-.4.9-.6 1.4-.6s1 .2 1.4.6c.4.4.6.8.6 1.3 0 .3-.1.7-.3 1-.2.3-.4.5-.8.7l.2.3c.3-.4.7-.5 1.2-.5zM39.9 29.3c.5 0 1 .2 1.3.5.4.4.5.8.5 1.3s-.2.9-.5 1.3c-.4.4-.8.5-1.3.5s-.9-.1-1.2-.4c-.4-.3-.6-.7-.6-1.1h-.3c0 1.1.3 2.1.8 2.8h-2.1c.5-.7.7-1.7.8-2.8H37c-.1.4-.3.8-.6 1.1-.4.3-.8.4-1.2.4-.5 0-1-.2-1.3-.5-.4-.4-.5-.8-.5-1.3s.2-.9.5-1.3.8-.5 1.3-.5.9.2 1.3.5l.2-.3c-.3-.2-.6-.4-.8-.7-.2-.3-.3-.6-.3-1 0-.5.2-1 .6-1.3.4-.4.9-.6 1.4-.6s1 .2 1.4.6c.4.4.6.8.6 1.3 0 .3-.1.7-.3 1-.2.3-.4.5-.8.7l.2.3c.3-.4.7-.5 1.2-.5zM39.9 54.3c.5 0 1 .2 1.3.5.4.4.5.8.5 1.3s-.2.9-.5 1.3c-.4.4-.8.5-1.3.5s-.9-.1-1.2-.4c-.4-.3-.6-.7-.6-1.1h-.3c0 1.1.3 2.1.8 2.8h-2.1c.5-.7.7-1.7.8-2.8H37c-.1.4-.3.8-.6 1.1-.4.3-.8.4-1.2.4-.5 0-1-.2-1.3-.5-.4-.4-.5-.8-.5-1.3s.2-.9.5-1.3.8-.5 1.3-.5.9.2 1.3.5l.2-.3c-.3-.2-.6-.4-.8-.7-.2-.3-.3-.6-.3-1 0-.5.2-1 .6-1.3.4-.4.9-.6 1.4-.6s1 .2 1.4.6c.4.4.6.8.6 1.3 0 .3-.1.7-.3 1-.2.3-.4.5-.8.7l.2.3c.3-.4.7-.5 1.2-.5zM27.4 54.3c.5 0 1 .2 1.3.5.4.4.5.8.5 1.3s-.2.9-.5 1.3c-.4.4-.8.5-1.3.5s-.9-.1-1.2-.4c-.4-.3-.6-.7-.6-1.1h-.3c0 1.1.3 2.1.8 2.8H24c.5-.7.7-1.7.8-2.8h-.3c-.1.4-.3.8-.6 1.1-.4.3-.8.4-1.2.4-.5 0-1-.2-1.3-.5-.4-.4-.5-.8-.5-1.3s.2-.9.5-1.3.8-.5 1.3-.5.9.2 1.3.5l.2-.3c-.3-.2-.6-.4-.8-.7-.2-.3-.3-.6-.3-1 0-.5.2-1 .6-1.3.4-.4.9-.6 1.4-.6s1 .2 1.4.6c.4.4.6.8.6 1.3 0 .3-.1.7-.3 1-.2.3-.4.5-.8.7l.2.3c.3-.4.7-.5 1.2-.5zM14.9 54.3c.5 0 1 .2 1.3.5.4.4.5.8.5 1.3s-.2.9-.5 1.3c-.4.4-.8.5-1.3.5s-.9-.1-1.2-.4c-.4-.3-.6-.7-.6-1.1h-.3c0 1.1.3 2.1.8 2.8h-2.1c.5-.7.7-1.7.8-2.8H12c-.1.4-.3.8-.6 1.1-.4.3-.8.4-1.2.4-.5 0-1-.2-1.3-.5-.4-.4-.5-.8-.5-1.3s.2-.9.5-1.3.8-.5 1.3-.5.9.2 1.3.5l.2-.3c-.3-.2-.6-.4-.8-.7-.2-.3-.3-.6-.3-1 0-.5.2-1 .6-1.3.4-.4.9-.6 1.4-.6s1 .2 1.4.6c.4.4.6.8.6 1.3 0 .3-.1.7-.3 1s-.4.5-.8.7l.2.3c.3-.4.7-.5 1.2-.5zM14.9 41.8c.5 0 1 .2 1.3.5.4.4.5.8.5 1.3s-.2.9-.5 1.3c-.4.4-.8.5-1.3.5s-.9-.1-1.2-.4c-.4-.3-.6-.7-.6-1.1h-.3c0 1.1.3 2.1.8 2.8h-2.1c.5-.7.7-1.7.8-2.8H12c-.1.4-.3.8-.6 1.1-.4.3-.8.4-1.2.4-.5 0-1-.2-1.3-.5-.4-.4-.5-.8-.5-1.3s.2-.9.5-1.3.8-.5 1.3-.5.9.2 1.3.5l.2-.3c-.3-.2-.6-.4-.8-.7-.2-.3-.3-.6-.3-1 0-.5.2-1 .6-1.3.4-.4.9-.6 1.4-.6s1 .2 1.4.6c.4.4.6.8.6 1.3 0 .3-.1.7-.3 1-.2.3-.4.5-.8.7l.2.3c.3-.4.7-.5 1.2-.5zM27.4 29.3c.5 0 1 .2 1.3.5.4.4.5.8.5 1.3s-.2.9-.5 1.3c-.4.4-.8.5-1.3.5s-.9-.1-1.2-.4c-.4-.3-.6-.7-.6-1.1h-.3c0 1.1.3 2.1.8 2.8H24c.5-.7.7-1.7.8-2.8h-.3c-.1.4-.3.8-.6 1.1-.4.3-.8.4-1.2.4-.5 0-1-.2-1.3-.5-.4-.4-.5-.8-.5-1.3s.2-.9.5-1.3c.4-.4.8-.5 1.3-.5s.9.2 1.3.5l.2-.3c-.3-.2-.6-.4-.8-.7-.2-.3-.3-.6-.3-1 0-.5.2-1 .6-1.3.4-.4.9-.6 1.4-.6s1 .2 1.4.6c.4.4.6.8.6 1.3 0 .3-.1.7-.3 1s-.4.5-.8.7l.2.3c.3-.4.7-.5 1.2-.5zM14.9 29.3c.5 0 1 .2 1.3.5.4.4.5.8.5 1.3s-.2.9-.5 1.3c-.4.4-.8.5-1.3.5s-.9-.1-1.2-.4c-.4-.3-.6-.7-.6-1.1h-.3c0 1.1.3 2.1.8 2.8h-2.1c.5-.7.7-1.7.8-2.8H12c-.1.4-.3.8-.6 1.1-.4.3-.8.4-1.2.4-.5 0-1-.2-1.3-.5-.4-.4-.5-.8-.5-1.3s.2-.9.5-1.3c.4-.4.8-.5 1.3-.5s.9.2 1.3.5l.2-.3c-.3-.2-.6-.4-.8-.7-.2-.3-.3-.6-.3-1 0-.5.2-1 .6-1.3.4-.4.9-.6 1.4-.6s1 .2 1.4.6c.4.4.6.8.6 1.3 0 .3-.1.7-.3 1s-.4.5-.8.7l.2.3c.3-.4.7-.5 1.2-.5z"/></g></svg>