<svg xmlns="http://www.w3.org/2000/svg" viewBox="0 0 50 70"><path fill="#FFF" d="M5 69c-2.2 0-4-1.8-4-4V5c0-2.2 1.8-4 4-4h40c2.2 0 4 1.8 4 4v60c0 2.2-1.8 4-4 4H5z"/><path d="M45 2c1.7 0 3 1.3 3 3v60c0 1.7-1.3 3-3 3H5c-1.7 0-3-1.3-3-3V5c0-1.7 1.3-3 3-3h40m0-2H5C2.2 0 0 2.2 0 5v60c0 2.8 2.2 5 5 5h40c2.8 0 5-2.2 5-5V5c0-2.8-2.2-5-5-5z"/><path fill="red" d="M7.2 16.9c-1.2 0-2.2-.4-3.1-1.2-.9-.7-1.3-1.7-1.3-2.9 0-1.4.6-2.5 1.8-3.3-.9-.7-1.3-1.6-1.3-2.6S3.7 5 4.5 4.3c.8-.7 1.7-1 2.7-1 1 0 2 .3 2.7 1 .8.7 1.2 1.6 1.2 2.6 0 1.1-.4 2-1.3 2.7 1.2.8 1.8 1.9 1.8 3.3 0 1.2-.4 2.1-1.3 2.9-.9.7-1.9 1.1-3.1 1.1zm0-6.4c-.7 0-1.3.2-1.8.6-.6.4-.9 1-.9 1.7s.3 1.2.9 1.7c.5.4 1.1.6 1.8.6s1.3-.2 1.8-.6c.6-.5.9-1 .9-1.7s-.3-1.2-.9-1.7c-.5-.4-1.1-.6-1.8-.6zm0-5.5c-.6 0-1.1.2-1.5.5-.5.4-.7.8-.7 1.4 0 .5.2 1 .7 1.4.4.3.9.5 1.5.5s1.1-.2 1.5-.5c.5-.4.7-.8.7-1.4 0-.5-.2-1-.7-1.4-.4-.3-.9-.5-1.5-.5zM35.6 10.3c1.9-1.7 3.6-4 5.2-7.1 1.6 3 3.3 5.4 5.2 7.1-1.9 1.7-3.6 4-5.2 7.1-1.6-3-3.3-5.4-5.2-7.1z"/><g><path fill="red" d="M21.7 36.2c1.2-1 2.3-2.4 3.3-4.2 1 1.8 2.1 3.2 3.3 4.2-1.2 1-2.3 2.4-3.3 4.2-1-1.8-2.1-3.2-3.3-4.2zM34.2 42.5c1.2-1 2.3-2.4 3.3-4.2 1 1.8 2.1 3.2 3.3 4.2-1.2 1-2.3 2.4-3.3 4.2-1-1.8-2.1-3.2-3.3-4.2zM34.2 30c1.2-1 2.3-2.4 3.3-4.2 1 1.8 2.1 3.2 3.3 4.2-1.2 1-2.3 2.4-3.3 4.2-1-1.8-2.1-3.2-3.3-4.2zM34.2 55c1.2-1 2.3-2.4 3.3-4.2 1 1.8 2.1 3.2 3.3 4.2-1.2 1-2.3 2.4-3.3 4.2-1-1.8-2.1-3.2-3.3-4.2zM9.2 55c1.2-1 2.3-2.4 3.3-4.2 1 1.8 2.1 3.2 3.3 4.2-1.2 1-2.3 2.4-3.3 4.2-1-1.8-2.1-3.2-3.3-4.2zM9.2 42.5c1.2-1 2.3-2.4 3.3-4.2 1 1.8 2.1 3.2 3.3 4.2-1.2 1-2.3 2.4-3.3 4.2-1-1.8-2.1-3.2-3.3-4.2zM9.2 30c1.2-1 2.3-2.4 3.3-4.2 1 1.8 2.1 3.2 3.3 4.2-1.2 1-2.3 2.4-3.3 4.2-1-1.8-2.1-3.2-3.3-4.2zM21.7 48.7c1.2-1 2.3-2.4 3.3-4.2 1 1.8 2.1 3.2 3.3 4.2-1.2 1-2.3 2.4-3.3 4.2-1-1.8-2.1-3.2-3.3-4.2z"/></g></svg>