<svg xmlns="http://www.w3.org/2000/svg" viewBox="0 0 50 70"><path fill="#FFF" d="M5 69c-2.2 0-4-1.8-4-4V5c0-2.2 1.8-4 4-4h40c2.2 0 4 1.8 4 4v60c0 2.2-1.8 4-4 4H5z"/><path d="M45 2c1.7 0 3 1.3 3 3v60c0 1.7-1.3 3-3 3H5c-1.7 0-3-1.3-3-3V5c0-1.7 1.3-3 3-3h40m0-2H5C2.2 0 0 2.2 0 5v60c0 2.8 2.2 5 5 5h40c2.8 0 5-2.2 5-5V5c0-2.8-2.2-5-5-5z"/><path fill="red" d="M9.8 13.2h1.7v3.5H2.9v-.9c0-1.6.6-3.1 1.8-4.3.5-.5 1.6-1.4 3.3-2.7C9.2 8 9.8 7.2 9.8 6.6c0-.6-.3-1-1-1.3-.5-.3-1.1-.4-1.8-.4-1.6 0-2.4.5-2.4 1.6 0 .2.1.5.2.8l-1.6.6c-.2-.5-.3-1-.3-1.4 0-1.1.4-2 1.3-2.6.7-.5 1.7-.8 2.8-.8 1.2 0 2.2.3 3 .9 1 .7 1.5 1.5 1.5 2.6 0 1-.5 2-1.5 2.9-1 .8-2 1.5-3 2.3-1.2 1-1.9 2-2.1 3.1h5v-1.7zM35.6 10.3c1.9-1.7 3.6-4 5.2-7.1 1.6 3 3.3 5.4 5.2 7.1-1.9 1.7-3.6 4-5.2 7.1-1.6-3-3.3-5.4-5.2-7.1z"/><g><path fill="red" d="M34.2 30c1.2-1 2.3-2.4 3.3-4.2 1 1.8 2.1 3.2 3.3 4.2-1.2 1-2.3 2.4-3.3 4.2-1-1.8-2.1-3.2-3.3-4.2zM9.2 55c1.2-1 2.3-2.4 3.3-4.2 1 1.8 2.1 3.2 3.3 4.2-1.2 1-2.3 2.4-3.3 4.2-1-1.8-2.1-3.2-3.3-4.2z"/></g></svg>