<svg xmlns="http://www.w3.org/2000/svg" viewBox="0 0 50 70"><path fill="#FFF" d="M5 69c-2.2 0-4-1.8-4-4V5c0-2.2 1.8-4 4-4h40c2.2 0 4 1.8 4 4v60c0 2.2-1.8 4-4 4H5z"/><path d="M45 2c1.7 0 3 1.3 3 3v60c0 1.7-1.3 3-3 3H5c-1.7 0-3-1.3-3-3V5c0-1.7 1.3-3 3-3h40m0-2H5C2.2 0 0 2.2 0 5v60c0 2.8 2.2 5 5 5h40c2.8 0 5-2.2 5-5V5c0-2.8-2.2-5-5-5z"/><path fill="red" d="M6.4 15.2v1.6H2.8v-1.6H4L6.2 3.4h2l2.2 11.8h1.2v1.6H8v-1.6h.8l-.3-1.4H5.9l-.3 1.4h.8zm-.2-3h2.1l-1-5.5-1.1 5.5zM35.6 10.3c1.9-1.7 3.6-4 5.2-7.1 1.6 3 3.3 5.4 5.2 7.1-1.9 1.7-3.6 4-5.2 7.1-1.6-3-3.3-5.4-5.2-7.1z"/><g><path fill="red" d="M11.9 42.5C16.6 38.3 21 32.4 25 24.8c4 7.6 8.4 13.5 13.1 17.6C33.4 46.6 29 52.5 25 60.1c-4-7.6-8.4-13.5-13.1-17.6z"/></g></svg>