<svg xmlns="http://www.w3.org/2000/svg" viewBox="0 0 50 70"><path fill="#FFF" d="M5 69c-2.2 0-4-1.8-4-4V5c0-2.2 1.8-4 4-4h40c2.2 0 4 1.8 4 4v60c0 2.2-1.8 4-4 4H5z"/><path d="M45 2c1.7 0 3 1.3 3 3v60c0 1.7-1.3 3-3 3H5c-1.7 0-3-1.3-3-3V5c0-1.7 1.3-3 3-3h40m0-2H5C2.2 0 0 2.2 0 5v60c0 2.8 2.2 5 5 5h40c2.8 0 5-2.2 5-5V5c0-2.8-2.2-5-5-5z"/><path fill="red" d="M2.9 11.1V10c0-1.9.3-3.4.8-4.5.7-1.6 1.9-2.4 3.6-2.4.8 0 1.6.2 2.3.7.7.4 1.2 1 1.6 1.7l-1.6.9c-.6-1-1.4-1.5-2.4-1.5-1.3 0-2.1 1-2.5 3 .7-.7 1.6-1 2.4-1 1.3 0 2.4.5 3.2 1.6.7 1 1.1 2.2 1.1 3.6 0 1.3-.4 2.4-1.2 3.4-.9 1-1.9 1.6-3.2 1.6-.6 0-1.3-.2-1.9-.6-.6-.5-1.1-1.3-1.6-2.4-.3-.9-.5-1.9-.6-3zm4.3 4.2c.8 0 1.4-.4 1.9-1.1.5-.6.7-1.4.7-2.1 0-.9-.2-1.6-.7-2.3C8.7 9 8 8.6 7.2 8.6c-.6 0-1.2.3-1.7.9-.4.5-.7 1.1-.9 1.7.1 1 .3 1.8.6 2.5.5 1.1 1.2 1.6 2 1.6zM35.6 10.3c1.9-1.7 3.6-4 5.2-7.1 1.6 3 3.3 5.4 5.2 7.1-1.9 1.7-3.6 4-5.2 7.1-1.6-3-3.3-5.4-5.2-7.1z"/><g><path fill="red" d="M34.2 42.5c1.2-1 2.3-2.4 3.3-4.2 1 1.8 2.1 3.2 3.3 4.2-1.2 1-2.3 2.4-3.3 4.2-1-1.8-2.1-3.2-3.3-4.2zM34.2 30c1.2-1 2.3-2.4 3.3-4.2 1 1.8 2.1 3.2 3.3 4.2-1.2 1-2.3 2.4-3.3 4.2-1-1.8-2.1-3.2-3.3-4.2zM34.2 55c1.2-1 2.3-2.4 3.3-4.2 1 1.8 2.1 3.2 3.3 4.2-1.2 1-2.3 2.4-3.3 4.2-1-1.8-2.1-3.2-3.3-4.2zM9.2 55c1.2-1 2.3-2.4 3.3-4.2 1 1.8 2.1 3.2 3.3 4.2-1.2 1-2.3 2.4-3.3 4.2-1-1.8-2.1-3.2-3.3-4.2zM9.2 42.5c1.2-1 2.3-2.4 3.3-4.2 1 1.8 2.1 3.2 3.3 4.2-1.2 1-2.3 2.4-3.3 4.2-1-1.8-2.1-3.2-3.3-4.2zM9.2 30c1.2-1 2.3-2.4 3.3-4.2 1 1.8 2.1 3.2 3.3 4.2-1.2 1-2.3 2.4-3.3 4.2-1-1.8-2.1-3.2-3.3-4.2z"/></g></svg>