<svg xmlns="http://www.w3.org/2000/svg" viewBox="0 0 50 70"><path fill="#FFF" d="M5 69c-2.2 0-4-1.8-4-4V5c0-2.2 1.8-4 4-4h40c2.2 0 4 1.8 4 4v60c0 2.2-1.8 4-4 4H5z"/><path d="M45 2c1.7 0 3 1.3 3 3v60c0 1.7-1.3 3-3 3H5c-1.7 0-3-1.3-3-3V5c0-1.7 1.3-3 3-3h40m0-2H5C2.2 0 0 2.2 0 5v60c0 2.8 2.2 5 5 5h40c2.8 0 5-2.2 5-5V5c0-2.8-2.2-5-5-5z"/><path fill="red" d="M2.8 15.3H4V4.8H2.8V3.4h3.7v1.5h-1V10l3.3-5.1H7.5V3.4h4.1v1.5h-1.2L7.8 9l2.7 6.4h1.1v1.5H7.5v-1.5h1.3l-2.1-4.8-1.3 2v2.8h1v1.5H2.8v-1.6zM35.6 10.3c1.9-1.7 3.6-4 5.2-7.1 1.6 3 3.3 5.4 5.2 7.1-1.9 1.7-3.6 4-5.2 7.1-1.6-3-3.3-5.4-5.2-7.1z"/><g fill="red"><path d="M15 40.5h10v15c0 1.1-.9 2-2 2h-8c-1.1 0-2-.9-2-2s.9-2 2-2v-13zM15 39.5l-2-11 7 4 5-7 5 7 7-4-2 11zM35 45.5v4h2zM37 57.5l-8-3h6z"/></g></svg>