<svg xmlns="http://www.w3.org/2000/svg" viewBox="0 0 50 70"><path fill="#FFF" d="M5 69c-2.2 0-4-1.8-4-4V5c0-2.2 1.8-4 4-4h40c2.2 0 4 1.8 4 4v60c0 2.2-1.8 4-4 4H5z"/><path d="M45 2c1.7 0 3 1.3 3 3v60c0 1.7-1.3 3-3 3H5c-1.7 0-3-1.3-3-3V5c0-1.7 1.3-3 3-3h40m0-2H5C2.2 0 0 2.2 0 5v60c0 2.8 2.2 5 5 5h40c2.8 0 5-2.2 5-5V5c0-2.8-2.2-5-5-5z"/><path fill="red" d="M4.7 12.1v.8c0 .6.1 1.2.4 1.5.3.5.8.7 1.4.7.5 0 1-.2 1.3-.6.3-.4.4-.8.4-1.4V5.3H6.8V3.4h4.7v1.9h-1.4v7.9c0 1.1-.3 2-1 2.7-.6.7-1.5 1.1-2.6 1.1s-2-.4-2.7-1.1c-.7-.7-1-1.7-1-2.7v-1.1h1.9zM35.6 10.3c1.9-1.7 3.6-4 5.2-7.1 1.6 3 3.3 5.4 5.2 7.1-1.9 1.7-3.6 4-5.2 7.1-1.6-3-3.3-5.4-5.2-7.1z"/><g fill="red"><path d="M15 40.5h10v15c0 1.1-.9 2-2 2h-8c-1.1 0-2-.9-2-2s.9-2 2-2v-13zM37 31.5l-2 8H15l-2-8zM35 45.5v4h2z"/><ellipse cx="25" cy="33.5" rx="10" ry="6"/></g></svg>