<svg xmlns="http://www.w3.org/2000/svg" viewBox="0 0 50 70"><path fill="#FFF" d="M5 69c-2.2 0-4-1.8-4-4V5c0-2.2 1.8-4 4-4h40c2.2 0 4 1.8 4 4v60c0 2.2-1.8 4-4 4H5z"/><path d="M45 2c1.7 0 3 1.3 3 3v60c0 1.7-1.3 3-3 3H5c-1.7 0-3-1.3-3-3V5c0-1.7 1.3-3 3-3h40m0-2H5C2.2 0 0 2.2 0 5v60c0 2.8 2.2 5 5 5h40c2.8 0 5-2.2 5-5V5c0-2.8-2.2-5-5-5z"/><path fill="red" d="M11.6 16.8c-.6 0-1.1 0-1.4-.1-.3-.1-.6-.2-.9-.4-.7.5-1.4.7-2.2.7-.9 0-1.6-.3-2.3-.9-.7-.6-1.1-1.4-1.1-2.2v-1.2h-.9v-1.5s.3 0 .9-.1V6.3c0-.9.4-1.6 1.1-2.3.7-.6 1.5-.9 2.3-.9.9 0 1.6.3 2.3.9.7.6 1 1.4 1 2.2v7.5c0 .4-.1.7-.2 1.1.1.1.3.2.4.2h.9v1.8zm-6.3-5.7c.7.1 1.3.4 2 .9.4.3.9.8 1.6 1.5V6.3c0-.4-.2-.7-.6-1-.4-.3-.8-.5-1.2-.5s-.8.2-1.2.5c-.4.3-.6.7-.6 1v4.8zm2.7 4L6 13c-.2-.2-.4-.3-.7-.3v1.2c0 .4.2.7.6 1 .4.3.8.5 1.2.5.3 0 .6-.1.9-.3zM35.6 10.3c1.9-1.7 3.6-4 5.2-7.1 1.6 3 3.3 5.4 5.2 7.1-1.9 1.7-3.6 4-5.2 7.1-1.6-3-3.3-5.4-5.2-7.1z"/><g fill="red"><path d="M15 39.5l-2-9 2.3 1.3c2.7 1.5 6.1.8 7.9-1.7l1.8-2.6 1.8 2.6c1.8 2.5 5.2 3.2 7.9 1.7l2.3-1.3-2 9H15zM35 45.5v4h2zM15 57.5c5.5 0 10-7.6 10-17H15v17z"/></g></svg>