<svg xmlns="http://www.w3.org/2000/svg" viewBox="0 0 50 70"><path fill="#FFF" d="M5 69c-2.2 0-4-1.8-4-4V5c0-2.2 1.8-4 4-4h40c2.2 0 4 1.8 4 4v60c0 2.2-1.8 4-4 4H5z"/><path d="M45 2c1.7 0 3 1.3 3 3v60c0 1.7-1.3 3-3 3H5c-1.7 0-3-1.3-3-3V5c0-1.7 1.3-3 3-3h40m0-2H5C2.2 0 0 2.2 0 5v60c0 2.8 2.2 5 5 5h40c2.8 0 5-2.2 5-5V5c0-2.8-2.2-5-5-5z"/><path fill="red" d="M3 3.4h1.7v13.4H3V3.4zM8.5 17c-.8 0-1.4-.3-2-.8s-.8-1.2-.8-2V6c0-.8.3-1.5.8-2 .5-.6 1.2-.9 2-.9s1.5.3 2 .9c.5.6.8 1.2.8 2v8.1c0 .8-.3 1.5-.8 2s-1.2.9-2 .9zm0-12.1c-.3 0-.5.1-.7.3-.3.2-.4.5-.4.8v8.1c0 .3.1.6.3.8.2.2.5.3.8.3.3 0 .6-.1.8-.3.2-.2.3-.5.3-.8V6c0-.3-.1-.6-.3-.8-.2-.2-.4-.3-.8-.3zM40 4.5c.5.7.7 1.5.7 2.4h.2c0-.9.2-1.7.7-2.4.5-.8 1.2-1.2 2.1-1.2.9 0 1.6.4 2.1 1.2.5.7.7 1.5.7 2.5 0 .9-.4 2.1-1.2 3.4-.3.5-1.1 1.7-2.4 3.6-1 1.5-1.7 2.6-2.1 3.5-.3-.8-1-2-2.1-3.5-1.3-1.9-2.2-3.1-2.4-3.6-.8-1.4-1.2-2.5-1.2-3.4 0-.9.2-1.7.7-2.4.5-.8 1.2-1.2 2.1-1.2.9-.1 1.6.3 2.1 1.1z"/><g><path fill="red" d="M24.5 32.7c.3.4.4.9.4 1.4h.1c0-.5.1-1 .4-1.4.3-.5.8-.7 1.3-.7s1 .2 1.3.7c.3.4.5.9.5 1.5s-.2 1.2-.7 2c-.2.3-.7 1-1.5 2.1-.6.9-1.1 1.6-1.3 2.1-.2-.5-.6-1.2-1.3-2.1-.8-1.1-1.3-1.8-1.5-2.1-.5-.8-.7-1.5-.7-2s.1-1 .5-1.5c.3-.5.8-.7 1.3-.7.4 0 .9.3 1.2.7zM37 39c.3.4.4.9.4 1.4h.1c0-.5.1-1 .4-1.4.3-.5.8-.7 1.3-.7s1 .2 1.3.7c.3.4.5.9.5 1.5s-.2 1.2-.7 2c-.2.3-.7 1-1.5 2.1-.6.9-1.1 1.6-1.3 2.1-.2-.5-.6-1.2-1.3-2.1-.8-1.1-1.3-1.8-1.5-2.1-.5-.8-.7-1.5-.7-2s.1-1 .5-1.5c.3-.5.8-.7 1.3-.7.4 0 .9.2 1.2.7zM37 26.5c.3.4.4.9.4 1.4h.1c0-.5.1-1 .4-1.4.3-.5.8-.7 1.3-.7s1 .2 1.3.7c.3.4.5.9.5 1.5s-.2 1.2-.7 2c-.2.3-.7 1-1.5 2.1-.6.9-1.1 1.6-1.3 2.1-.2-.5-.6-1.2-1.3-2.1-.8-1.1-1.3-1.8-1.5-2.1-.5-.8-.7-1.5-.7-2s.1-1 .5-1.5c.3-.5.8-.7 1.3-.7.4 0 .9.2 1.2.7zM37 51.5c.3.4.4.9.4 1.4h.1c0-.5.1-1 .4-1.4.3-.5.8-.7 1.3-.7s1 .2 1.3.7c.3.4.5.9.5 1.5s-.2 1.2-.7 2c-.2.3-.7 1-1.5 2.1-.6.9-1.1 1.6-1.3 2.1-.2-.5-.6-1.2-1.3-2.1-.8-1.1-1.3-1.8-1.5-2.1-.5-.8-.7-1.5-.7-2s.1-1 .5-1.5c.3-.5.8-.7 1.3-.7.4 0 .9.2 1.2.7zM24.5 57.7c.3.4.4.9.4 1.4h.1c0-.5.1-1 .4-1.4.3-.5.8-.7 1.3-.7s1 .2 1.3.7c.3.4.5.9.5 1.5s-.2 1.2-.7 2c-.2.3-.7 1-1.5 2.1-.6.9-1.1 1.6-1.3 2.1-.2-.5-.6-1.2-1.3-2.1-.8-1.1-1.3-1.8-1.5-2.1-.5-.8-.7-1.5-.7-2s.1-1 .5-1.5c.3-.5.8-.7 1.3-.7.4 0 .9.3 1.2.7zM12 51.5c.3.4.4.9.4 1.4h.1c0-.5.1-1 .4-1.4.3-.5.8-.7 1.3-.7s1 .2 1.3.7c.3.4.5.9.5 1.5s-.2 1.2-.7 2c-.2.3-.7 1-1.5 2.1-.6.9-1.1 1.6-1.3 2.1-.2-.5-.6-1.2-1.3-2.1-.8-1.1-1.3-1.8-1.5-2.1-.5-.8-.7-1.5-.7-2s.1-1 .5-1.5c.3-.5.8-.7 1.3-.7.4 0 .9.2 1.2.7zM12 39c.3.4.4.9.4 1.4h.1c0-.5.1-1 .4-1.4.3-.5.8-.7 1.3-.7s1 .2 1.3.7c.3.4.5.9.5 1.5s-.2 1.2-.7 2c-.2.3-.7 1-1.5 2.1-.6.9-1.1 1.6-1.3 2.1-.2-.5-.6-1.2-1.3-2.1-.8-1.1-1.3-1.8-1.5-2.1-.5-.8-.7-1.5-.7-2s.1-1 .5-1.5c.3-.5.8-.7 1.3-.7.4 0 .9.2 1.2.7zM24.5 20.2c.3.4.4.9.4 1.4h.1c0-.5.1-1 .4-1.4.3-.5.8-.7 1.3-.7s1 .2 1.3.7c.3.4.5.9.5 1.5s-.2 1.2-.7 2c-.2.3-.7 1-1.5 2.1-.6.9-1.1 1.6-1.3 2.1-.2-.5-.6-1.2-1.3-2.1-.8-1.1-1.3-1.8-1.5-2.1-.5-.8-.7-1.5-.7-2s.1-1 .5-1.5c.3-.5.8-.7 1.3-.7.4 0 .9.3 1.2.7zM12 26.5c.3.4.4.9.4 1.4h.1c0-.5.1-1 .4-1.4.3-.5.8-.7 1.3-.7s1 .2 1.3.7c.3.4.5.9.5 1.5s-.2 1.2-.7 2c-.2.3-.7 1-1.5 2.1-.6.9-1.1 1.6-1.3 2.1-.2-.5-.6-1.2-1.3-2.1-.8-1.1-1.3-1.8-1.5-2.1-.5-.8-.7-1.5-.7-2s.1-1 .5-1.5c.3-.5.8-.7 1.3-.7.4 0 .9.2 1.2.7zM24.5 45.2c.3.4.4.9.4 1.4h.1c0-.5.1-1 .4-1.4.3-.5.8-.7 1.3-.7s1 .2 1.3.7c.3.4.5.9.5 1.5s-.2 1.2-.7 2c-.2.3-.7 1-1.5 2.1-.6.9-1.1 1.6-1.3 2.1-.2-.5-.6-1.2-1.3-2.1-.8-1.1-1.3-1.8-1.5-2.1-.5-.8-.7-1.5-.7-2s.1-1 .5-1.5c.3-.5.8-.7 1.3-.7.4 0 .9.3 1.2.7z"/></g></svg>