<svg xmlns="http://www.w3.org/2000/svg" viewBox="0 0 50 70"><path fill="#FFF" d="M5 69c-2.2 0-4-1.8-4-4V5c0-2.2 1.8-4 4-4h40c2.2 0 4 1.8 4 4v60c0 2.2-1.8 4-4 4H5z"/><path d="M45 2c1.7 0 3 1.3 3 3v60c0 1.7-1.3 3-3 3H5c-1.7 0-3-1.3-3-3V5c0-1.7 1.3-3 3-3h40m0-2H5C2.2 0 0 2.2 0 5v60c0 2.8 2.2 5 5 5h40c2.8 0 5-2.2 5-5V5c0-2.8-2.2-5-5-5z"/><path fill="red" d="M4.7 12.1v.8c0 .6.1 1.2.4 1.5.3.5.8.7 1.4.7.5 0 1-.2 1.3-.6.3-.4.4-.8.4-1.4V5.3H6.8V3.4h4.7v1.9h-1.4v7.9c0 1.1-.3 2-1 2.7-.6.7-1.5 1.1-2.6 1.1s-2-.4-2.7-1.1c-.7-.7-1-1.7-1-2.7v-1.1h1.9zM40 4.5c.5.7.7 1.5.7 2.4h.2c0-.9.2-1.7.7-2.4.5-.8 1.2-1.2 2.1-1.2.9 0 1.6.4 2.1 1.2.5.7.7 1.5.7 2.5 0 .9-.4 2.1-1.2 3.4-.3.5-1.1 1.7-2.4 3.6-1 1.5-1.7 2.6-2.1 3.5-.3-.8-1-2-2.1-3.5-1.3-1.9-2.2-3.1-2.4-3.6-.8-1.4-1.2-2.5-1.2-3.4 0-.9.2-1.7.7-2.4.5-.8 1.2-1.2 2.1-1.2.9-.1 1.6.3 2.1 1.1z"/><g fill="red"><path d="M35 40.5H25v15c0 1.1.9 2 2 2h8c1.1 0 2-.9 2-2s-.9-2-2-2v-13zM13 31.5l2 8h20l2-8zM15 45.5v4h-2z"/><ellipse cx="25" cy="33.5" rx="10" ry="6"/></g></svg>