<svg xmlns="http://www.w3.org/2000/svg" viewBox="0 0 50 70"><path fill="#FFF" d="M5 69c-2.2 0-4-1.8-4-4V5c0-2.2 1.8-4 4-4h40c2.2 0 4 1.8 4 4v60c0 2.2-1.8 4-4 4H5z"/><path d="M45 2c1.7 0 3 1.3 3 3v60c0 1.7-1.3 3-3 3H5c-1.7 0-3-1.3-3-3V5c0-1.7 1.3-3 3-3h40m0-2H5C2.2 0 0 2.2 0 5v60c0 2.8 2.2 5 5 5h40c2.8 0 5-2.2 5-5V5c0-2.8-2.2-5-5-5z"/><path fill="red" d="M2.9 11.1V10c0-1.9.3-3.4.8-4.5.7-1.6 1.9-2.4 3.6-2.4.8 0 1.6.2 2.3.7.7.4 1.2 1 1.6 1.7l-1.6.9c-.6-1-1.4-1.5-2.4-1.5-1.3 0-2.1 1-2.5 3 .7-.7 1.6-1 2.4-1 1.3 0 2.4.5 3.2 1.6.7 1 1.1 2.2 1.1 3.6 0 1.3-.4 2.4-1.2 3.4-.9 1-1.9 1.6-3.2 1.6-.6 0-1.3-.2-1.9-.6-.6-.5-1.1-1.3-1.6-2.4-.3-.9-.5-1.9-.6-3zm4.3 4.2c.8 0 1.4-.4 1.9-1.1.5-.6.7-1.4.7-2.1 0-.9-.2-1.6-.7-2.3C8.7 9 8 8.6 7.2 8.6c-.6 0-1.2.3-1.7.9-.4.5-.7 1.1-.9 1.7.1 1 .3 1.8.6 2.5.5 1.1 1.2 1.6 2 1.6zM40 4.5c.5.7.7 1.5.7 2.4h.2c0-.9.2-1.7.7-2.4.5-.8 1.2-1.2 2.1-1.2.9 0 1.6.4 2.1 1.2.5.7.7 1.5.7 2.5 0 .9-.4 2.1-1.2 3.4-.3.5-1.1 1.7-2.4 3.6-1 1.5-1.7 2.6-2.1 3.5-.3-.8-1-2-2.1-3.5-1.3-1.9-2.2-3.1-2.4-3.6-.8-1.4-1.2-2.5-1.2-3.4 0-.9.2-1.7.7-2.4.5-.8 1.2-1.2 2.1-1.2.9-.1 1.6.3 2.1 1.1z"/><g><path fill="red" d="M37 39c.3.4.4.9.4 1.4h.1c0-.5.1-1 .4-1.4.3-.5.8-.7 1.3-.7s1 .2 1.3.7c.3.4.5.9.5 1.5s-.2 1.2-.7 2c-.2.3-.7 1-1.5 2.1-.6.9-1.1 1.6-1.3 2.1-.2-.5-.6-1.2-1.3-2.1-.8-1.1-1.3-1.8-1.5-2.1-.5-.8-.7-1.5-.7-2s.1-1 .5-1.5c.3-.5.8-.7 1.3-.7.4 0 .9.2 1.2.7zM37 26.5c.3.4.4.9.4 1.4h.1c0-.5.1-1 .4-1.4.3-.5.8-.7 1.3-.7s1 .2 1.3.7c.3.4.5.9.5 1.5s-.2 1.2-.7 2c-.2.3-.7 1-1.5 2.1-.6.9-1.1 1.6-1.3 2.1-.2-.5-.6-1.2-1.3-2.1-.8-1.1-1.3-1.8-1.5-2.1-.5-.8-.7-1.5-.7-2s.1-1 .5-1.5c.3-.5.8-.7 1.3-.7.4 0 .9.2 1.2.7zM37 51.5c.3.4.4.9.4 1.4h.1c0-.5.1-1 .4-1.4.3-.5.8-.7 1.3-.7s1 .2 1.3.7c.3.4.5.9.5 1.5s-.2 1.2-.7 2c-.2.3-.7 1-1.5 2.1-.6.9-1.1 1.6-1.3 2.1-.2-.5-.6-1.2-1.3-2.1-.8-1.1-1.3-1.8-1.5-2.1-.5-.8-.7-1.5-.7-2s.1-1 .5-1.5c.3-.5.8-.7 1.3-.7.4 0 .9.2 1.2.7zM12 51.5c.3.4.4.9.4 1.4h.1c0-.5.1-1 .4-1.4.3-.5.8-.7 1.3-.7s1 .2 1.3.7c.3.4.5.9.5 1.5s-.2 1.2-.7 2c-.2.3-.7 1-1.5 2.1-.6.9-1.1 1.6-1.3 2.1-.2-.5-.6-1.2-1.3-2.1-.8-1.1-1.3-1.8-1.5-2.1-.5-.8-.7-1.5-.7-2s.1-1 .5-1.5c.3-.5.8-.7 1.3-.7.4 0 .9.2 1.2.7zM12 39c.3.4.4.9.4 1.4h.1c0-.5.1-1 .4-1.4.3-.5.8-.7 1.3-.7s1 .2 1.3.7c.3.4.5.9.5 1.5s-.2 1.2-.7 2c-.2.3-.7 1-1.5 2.1-.6.9-1.1 1.6-1.3 2.1-.2-.5-.6-1.2-1.3-2.1-.8-1.1-1.3-1.8-1.5-2.1-.5-.8-.7-1.5-.7-2s.1-1 .5-1.5c.3-.5.8-.7 1.3-.7.4 0 .9.2 1.2.7zM12 26.5c.3.4.4.9.4 1.4h.1c0-.5.1-1 .4-1.4.3-.5.8-.7 1.3-.7s1 .2 1.3.7c.3.4.5.9.5 1.5s-.2 1.2-.7 2c-.2.3-.7 1-1.5 2.1-.6.9-1.1 1.6-1.3 2.1-.2-.5-.6-1.2-1.3-2.1-.8-1.1-1.3-1.8-1.5-2.1-.5-.8-.7-1.5-.7-2s.1-1 .5-1.5c.3-.5.8-.7 1.3-.7.4 0 .9.2 1.2.7z"/></g></svg>