<svg xmlns="http://www.w3.org/2000/svg" viewBox="0 0 50 70"><path fill="#FFF" d="M5 69c-2.2 0-4-1.8-4-4V5c0-2.2 1.8-4 4-4h40c2.2 0 4 1.8 4 4v60c0 2.2-1.8 4-4 4H5z"/><path d="M45 2c1.7 0 3 1.3 3 3v60c0 1.7-1.3 3-3 3H5c-1.7 0-3-1.3-3-3V5c0-1.7 1.3-3 3-3h40m0-2H5C2.2 0 0 2.2 0 5v60c0 2.8 2.2 5 5 5h40c2.8 0 5-2.2 5-5V5c0-2.8-2.2-5-5-5z"/><path fill="red" d="M6.4 15.2v1.6H2.8v-1.6H4L6.2 3.4h2l2.2 11.8h1.2v1.6H8v-1.6h.8l-.3-1.4H5.9l-.3 1.4h.8zm-.2-3h2.1l-1-5.5-1.1 5.5zM40 4.5c.5.7.7 1.5.7 2.4h.2c0-.9.2-1.7.7-2.4.5-.8 1.2-1.2 2.1-1.2.9 0 1.6.4 2.1 1.2.5.7.7 1.5.7 2.5 0 .9-.4 2.1-1.2 3.4-.3.5-1.1 1.7-2.4 3.6-1 1.5-1.7 2.6-2.1 3.5-.3-.8-1-2-2.1-3.5-1.3-1.9-2.2-3.1-2.4-3.6-.8-1.4-1.2-2.5-1.2-3.4 0-.9.2-1.7.7-2.4.5-.8 1.2-1.2 2.1-1.2.9-.1 1.6.3 2.1 1.1z"/><g><path fill="red" d="M23 27.8c1.1 1.7 1.7 3.7 1.7 5.9h.6c0-2.2.6-4.2 1.8-5.9 1.3-1.9 3-2.9 5.2-2.9s3.9 1 5.2 3c1.2 1.8 1.8 3.8 1.8 6.1 0 2.4-1 5.2-3 8.6-.7 1.3-2.8 4.3-6.1 8.9-2.6 3.7-4.3 6.5-5.2 8.6-.9-2.1-2.6-5-5.2-8.6-3.3-4.7-5.4-7.6-6.1-8.9-2-3.3-3-6.2-3-8.6 0-2.3.6-4.3 1.8-6.1 1.3-2 3.1-3 5.2-3 2.2-.1 4 .9 5.3 2.9z"/></g></svg>