<svg xmlns="http://www.w3.org/2000/svg" viewBox="0 0 64 64"><path d="M32 2.2c.2 1.2 2.6 4.8 7.4 10.8 3.1 3.8 6.1 7.6 9.2 11.4 2.3 3.1 3.8 5.8 4.6 7.9.9 2.5 1.4 5.5 1.4 9 0 2.9-.9 5.5-2.6 7.7-1.9 2.4-4.2 3.6-7.1 3.6-2.9 0-5.2-1.2-7-3.5-1.7-2.2-2.6-4.7-2.6-7.7h-1.5c0 3.2.4 6.5 1.2 9.8.9 3.6 2.1 6.7 3.6 9.2H25.3c3.2-5.1 4.9-11.4 4.9-18.9h-1.5c0 2.9-.9 5.5-2.6 7.7-1.8 2.3-4.2 3.5-7 3.5-2.9 0-5.2-1.2-7.1-3.6-1.7-2.2-2.6-4.8-2.6-7.7 0-3.5.5-6.5 1.4-9 .8-2.2 2.3-4.8 4.6-7.9 3.1-3.8 6.1-7.6 9.2-11.4 4.8-6 7.2-9.6 7.4-10.9z"/></svg>