<svg xmlns="http://www.w3.org/2000/svg" viewBox="0 0 50 70"><path fill="#FFF" d="M5 69c-2.2 0-4-1.8-4-4V5c0-2.2 1.8-4 4-4h40c2.2 0 4 1.8 4 4v60c0 2.2-1.8 4-4 4H5z"/><path d="M45 2c1.7 0 3 1.3 3 3v60c0 1.7-1.3 3-3 3H5c-1.7 0-3-1.3-3-3V5c0-1.7 1.3-3 3-3h40m0-2H5C2.2 0 0 2.2 0 5v60c0 2.8 2.2 5 5 5h40c2.8 0 5-2.2 5-5V5c0-2.8-2.2-5-5-5z"/><path d="M2.8 15.3H4V4.8H2.8V3.4h3.7v1.5h-1V10l3.3-5.1H7.5V3.4h4.1v1.5h-1.2L7.8 9l2.7 6.4h1.1v1.5H7.5v-1.5h1.3l-2.1-4.8-1.3 2v2.8h1v1.5H2.8v-1.6zM40.8 2.9c0 .3.7 1.2 1.8 2.7.8.9 1.5 1.9 2.3 2.8.6.8.9 1.4 1.2 2 .2.6.4 1.4.4 2.3 0 .7-.2 1.4-.6 1.9-.5.6-1.1.9-1.8.9s-1.3-.3-1.8-.9c-.4-.5-.6-1.2-.6-1.9h-.4c0 .8.1 1.6.3 2.4.2.9.5 1.7.9 2.3h-3.3c.8-1.3 1.2-2.9 1.2-4.7H40c0 .7-.2 1.4-.6 1.9-.5.6-1 .9-1.8.9-.7 0-1.3-.3-1.8-.9-.4-.6-.6-1.2-.6-1.9 0-.9.1-1.6.4-2.3.2-.5.6-1.2 1.2-2 .8-.9 1.5-1.9 2.3-2.8 1-1.5 1.7-2.4 1.7-2.7z"/><g><path d="M35 40.5H25v15c0 1.1.9 2 2 2h8c1.1 0 2-.9 2-2s-.9-2-2-2v-13zM35 39.5l2-11-7 4-5-7-5 7-7-4 2 11zM15 45.5v4h-2zM13 57.5l8-3h-6z"/></g></svg>