<svg xmlns="http://www.w3.org/2000/svg" viewBox="0 0 50 70"><path fill="#FFF" d="M5 69c-2.2 0-4-1.8-4-4V5c0-2.2 1.8-4 4-4h40c2.2 0 4 1.8 4 4v60c0 2.2-1.8 4-4 4H5z"/><path d="M45 2c1.7 0 3 1.3 3 3v60c0 1.7-1.3 3-3 3H5c-1.7 0-3-1.3-3-3V5c0-1.7 1.3-3 3-3h40m0-2H5C2.2 0 0 2.2 0 5v60c0 2.8 2.2 5 5 5h40c2.8 0 5-2.2 5-5V5c0-2.8-2.2-5-5-5z"/><path d="M6.4 15.2v1.6H2.8v-1.6H4L6.2 3.4h2l2.2 11.8h1.2v1.6H8v-1.6h.8l-.3-1.4H5.9l-.3 1.4h.8zm-.2-3h2.1l-1-5.5-1.1 5.5zM40.8 2.9c0 .3.7 1.2 1.8 2.7.8.9 1.5 1.9 2.3 2.8.6.8.9 1.4 1.2 2 .2.6.4 1.4.4 2.3 0 .7-.2 1.4-.6 1.9-.5.6-1.1.9-1.8.9s-1.3-.3-1.8-.9c-.4-.5-.6-1.2-.6-1.9h-.4c0 .8.1 1.6.3 2.4.2.9.5 1.7.9 2.3h-3.3c.8-1.3 1.2-2.9 1.2-4.7H40c0 .7-.2 1.4-.6 1.9-.5.6-1 .9-1.8.9-.7 0-1.3-.3-1.8-.9-.4-.6-.6-1.2-.6-1.9 0-.9.1-1.6.4-2.3.2-.5.6-1.2 1.2-2 .8-.9 1.5-1.9 2.3-2.8 1-1.5 1.7-2.4 1.7-2.7z"/><g><path d="M25 23.9c.1.8 1.6 3 4.6 6.8 1.9 2.4 3.8 4.7 5.8 7.1 1.4 1.9 2.4 3.6 2.9 5 .6 1.6.9 3.5.9 5.6 0 1.8-.5 3.5-1.6 4.8-1.2 1.5-2.7 2.3-4.4 2.3-1.8 0-3.3-.7-4.4-2.2-1.1-1.4-1.6-3-1.6-4.8h-1c0 2 .3 4 .8 6.1.6 2.3 1.3 4.2 2.3 5.7H21c2-3.2 3-7.1 3-11.8h-1c0 1.8-.5 3.4-1.6 4.8-1.1 1.5-2.6 2.2-4.4 2.2-1.8 0-3.3-.8-4.4-2.3-1.1-1.4-1.6-3-1.6-4.8 0-2.2.3-4.1.9-5.6.5-1.4 1.5-3 2.9-5 1.9-2.4 3.8-4.7 5.8-7.1 2.8-3.8 4.3-6 4.4-6.8z"/></g></svg>