<svg xmlns="http://www.w3.org/2000/svg" viewBox="0 0 50 70"><path fill="#FFF" d="M5 69c-2.2 0-4-1.8-4-4V5c0-2.2 1.8-4 4-4h40c2.2 0 4 1.8 4 4v60c0 2.2-1.8 4-4 4H5z"/><path d="M45 2c1.7 0 3 1.3 3 3v60c0 1.7-1.3 3-3 3H5c-1.7 0-3-1.3-3-3V5c0-1.7 1.3-3 3-3h40m0-2H5C2.2 0 0 2.2 0 5v60c0 2.8 2.2 5 5 5h40c2.8 0 5-2.2 5-5V5c0-2.8-2.2-5-5-5z"/><path d="M9.7 11.9c-.7.6-1.6.9-2.5.9-1.3 0-2.3-.5-3.2-1.5-.8-1-1.2-2.1-1.2-3.3 0-1.3.4-2.4 1.2-3.3.8-1 1.9-1.5 3.2-1.5 1.6 0 2.7.8 3.5 2.4.6 1.2.9 2.7.9 4.5 0 1.8-.3 3.4-.9 4.6-.8 1.6-2 2.4-3.6 2.4s-2.9-.8-3.8-2.5l1.5-.9c.6 1.1 1.4 1.6 2.3 1.6 1.4-.1 2.3-1.2 2.6-3.4zm-2.5-7c-.8 0-1.4.3-1.9 1-.5.6-.8 1.3-.8 2.1s.2 1.5.7 2.1c.5.7 1.2 1 1.9 1s1.2-.3 1.7-.8c.4-.4.7-1 .9-1.7-.3-2.5-1.1-3.7-2.5-3.7zM40.8 2.9c0 .3.7 1.2 1.8 2.7.8.9 1.5 1.9 2.3 2.8.6.8.9 1.4 1.2 2 .2.6.4 1.4.4 2.3 0 .7-.2 1.4-.6 1.9-.5.6-1.1.9-1.8.9s-1.3-.3-1.8-.9c-.4-.5-.6-1.2-.6-1.9h-.4c0 .8.1 1.6.3 2.4.2.9.5 1.7.9 2.3h-3.3c.8-1.3 1.2-2.9 1.2-4.7H40c0 .7-.2 1.4-.6 1.9-.5.6-1 .9-1.8.9-.7 0-1.3-.3-1.8-.9-.4-.6-.6-1.2-.6-1.9 0-.9.1-1.6.4-2.3.2-.5.6-1.2 1.2-2 .8-.9 1.5-1.9 2.3-2.8 1-1.5 1.7-2.4 1.7-2.7z"/><g><path d="M25 37.8c0 .2.4.8 1.1 1.7.5.6 1 1.2 1.4 1.8.4.5.6.9.7 1.2.1.4.2.9.2 1.4 0 .5-.1.9-.4 1.2-.3.4-.7.6-1.1.6s-.8-.2-1.1-.5c-.3-.3-.4-.7-.4-1.2h-.2c0 .5.1 1 .2 1.5.1.6.3 1 .6 1.4h-2c.5-.8.8-1.8.8-3h-.2c0 .5-.1.9-.4 1.2-.3.4-.7.5-1.1.5s-.8-.2-1.1-.6c-.3-.3-.4-.8-.4-1.2 0-.5.1-1 .2-1.4.1-.3.4-.8.7-1.2.5-.6 1-1.2 1.4-1.8.7-.8 1.1-1.4 1.1-1.6zM37.5 38c0 .2.4.7 1.1 1.6.5.6 1 1.1 1.4 1.7.4.5.6.9.7 1.2.1.4.2.8.2 1.3 0 .4-.1.8-.4 1.2-.3.4-.7.5-1.1.5s-.8-.2-1.1-.5c-.3-.3-.4-.7-.4-1.1h-.2c0 .5.1 1 .2 1.5s.3 1 .6 1.4h-2.1c.5-.8.8-1.7.8-2.8H37c0 .4-.1.8-.4 1.1-.3.4-.7.5-1.1.5s-.8-.2-1.1-.5c-.3-.3-.4-.7-.4-1.2s.1-1 .2-1.3c.1-.3.4-.7.7-1.2.5-.6 1-1.1 1.4-1.7.8-.9 1.2-1.5 1.2-1.7zM37.5 25.5c0 .2.4.7 1.1 1.6.5.6 1 1.1 1.4 1.7.4.5.6.9.7 1.2.1.4.2.8.2 1.3 0 .4-.1.8-.4 1.2-.3.4-.7.5-1.1.5s-.8-.2-1.1-.5c-.3-.3-.4-.7-.4-1.1h-.2c0 .5.1 1 .2 1.5s.3 1 .6 1.4h-2.1c.5-.8.8-1.7.8-2.8H37c0 .4-.1.8-.4 1.1-.3.4-.7.5-1.1.5s-.8-.2-1.1-.5c-.3-.3-.4-.7-.4-1.2s.1-1 .2-1.3c.1-.3.4-.7.7-1.2.5-.6 1-1.1 1.4-1.7.8-.9 1.2-1.5 1.2-1.7zM37.5 50.5c0 .2.4.7 1.1 1.6.5.6 1 1.1 1.4 1.7.4.5.6.9.7 1.2.1.4.2.8.2 1.3 0 .4-.1.8-.4 1.2-.3.4-.7.5-1.1.5s-.8-.2-1.1-.5c-.3-.3-.4-.7-.4-1.1h-.2c0 .5.1 1 .2 1.5s.3 1 .6 1.4h-2.1c.5-.8.8-1.7.8-2.8H37c0 .4-.1.8-.4 1.1-.3.4-.7.5-1.1.5s-.8-.2-1.1-.5c-.3-.3-.4-.7-.4-1.2s.1-1 .2-1.3c.1-.3.4-.7.7-1.2.5-.6 1-1.1 1.4-1.7.8-.9 1.2-1.5 1.2-1.7zM25 50.5c0 .2.4.7 1.1 1.6.5.6 1 1.1 1.4 1.7.4.5.6.9.7 1.2.1.4.2.8.2 1.3 0 .4-.1.8-.4 1.2-.3.4-.7.5-1.1.5s-.8-.2-1.1-.5c-.3-.3-.4-.7-.4-1.1h-.2c0 .5.1 1 .2 1.5s.3 1 .6 1.4h-2c.5-.8.8-1.7.8-2.8h-.2c0 .4-.1.8-.4 1.1-.3.4-.7.5-1.1.5s-.8-.2-1.1-.5c-.3-.3-.4-.7-.4-1.2s.1-1 .2-1.3c.1-.3.4-.7.7-1.2.5-.6 1-1.1 1.4-1.7.7-.9 1.1-1.5 1.1-1.7zM12.5 50.5c0 .2.4.7 1.1 1.6.5.6 1 1.1 1.4 1.7.4.5.6.9.7 1.2.1.4.2.8.2 1.3 0 .4-.1.8-.4 1.2-.3.4-.7.5-1.1.5s-.8-.2-1.1-.5c-.3-.3-.4-.7-.4-1.1h-.2c0 .5.1 1 .2 1.5s.3 1 .6 1.4h-2.1c.5-.8.8-1.7.8-2.8H12c0 .4-.1.8-.4 1.1-.3.4-.7.5-1.1.5s-.8-.2-1.1-.5c-.3-.4-.4-.8-.4-1.2 0-.5.1-1 .2-1.3.1-.3.4-.7.7-1.2.5-.6 1-1.1 1.4-1.7.8-.9 1.2-1.5 1.2-1.7zM12.5 38c0 .2.4.7 1.1 1.6.5.6 1 1.1 1.4 1.7.4.5.6.9.7 1.2.1.4.2.8.2 1.3 0 .4-.1.8-.4 1.2-.3.4-.7.5-1.1.5s-.8-.2-1.1-.5c-.3-.3-.4-.7-.4-1.1h-.2c0 .5.1 1 .2 1.5s.3 1 .6 1.4h-2.1c.5-.8.8-1.7.8-2.8H12c0 .4-.1.8-.4 1.1-.3.4-.7.5-1.1.5s-.8-.2-1.1-.5c-.3-.4-.4-.8-.4-1.2 0-.5.1-1 .2-1.3.1-.3.4-.7.7-1.2.5-.6 1-1.1 1.4-1.7.8-.9 1.2-1.5 1.2-1.7zM25 25.5c0 .2.4.7 1.1 1.6.5.6 1 1.1 1.4 1.7.4.5.6.9.7 1.2.1.4.2.8.2 1.3 0 .4-.1.8-.4 1.2-.3.4-.7.5-1.1.5s-.8-.2-1.1-.5c-.3-.3-.4-.7-.4-1.1h-.2c0 .5.1 1 .2 1.5s.3 1 .6 1.4h-2c.5-.8.8-1.7.8-2.8h-.2c0 .4-.1.8-.4 1.1-.3.4-.7.5-1.1.5s-.8-.2-1.1-.5c-.3-.3-.4-.7-.4-1.2s.1-1 .2-1.3c.1-.3.4-.7.7-1.2.5-.6 1-1.1 1.4-1.7.7-.9 1.1-1.5 1.1-1.7zM12.5 25.5c0 .2.4.7 1.1 1.6.5.6 1 1.1 1.4 1.7.4.5.6.9.7 1.2.1.4.2.8.2 1.3 0 .4-.1.8-.4 1.2-.3.4-.7.5-1.1.5s-.8-.2-1.1-.5c-.3-.3-.4-.7-.4-1.1h-.2c0 .5.1 1 .2 1.5s.3 1 .6 1.4h-2.1c.5-.8.8-1.7.8-2.8H12c0 .4-.1.8-.4 1.1-.3.4-.7.5-1.1.5s-.8-.2-1.1-.5c-.3-.4-.4-.8-.4-1.2 0-.5.1-1 .2-1.3.1-.3.4-.7.7-1.2.5-.6 1-1.1 1.4-1.7.8-.9 1.2-1.5 1.2-1.7z"/></g></svg>