<svg xmlns="http://www.w3.org/2000/svg" viewBox="0 0 50 70"><path fill="#FFF" d="M5 69c-2.2 0-4-1.8-4-4V5c0-2.2 1.8-4 4-4h40c2.2 0 4 1.8 4 4v60c0 2.2-1.8 4-4 4H5z"/><path d="M45 2c1.7 0 3 1.3 3 3v60c0 1.7-1.3 3-3 3H5c-1.7 0-3-1.3-3-3V5c0-1.7 1.3-3 3-3h40m0-2H5C2.2 0 0 2.2 0 5v60c0 2.8 2.2 5 5 5h40c2.8 0 5-2.2 5-5V5c0-2.8-2.2-5-5-5z"/><path d="M4.7 12.1v.8c0 .6.1 1.2.4 1.5.3.5.8.7 1.4.7.5 0 1-.2 1.3-.6.3-.4.4-.8.4-1.4V5.3H6.8V3.4h4.7v1.9h-1.4v7.9c0 1.1-.3 2-1 2.7-.6.7-1.5 1.1-2.6 1.1s-2-.4-2.7-1.1c-.7-.7-1-1.7-1-2.7v-1.1h1.9zM40.8 2.9c0 .3.7 1.2 1.8 2.7.8.9 1.5 1.9 2.3 2.8.6.8.9 1.4 1.2 2 .2.6.4 1.4.4 2.3 0 .7-.2 1.4-.6 1.9-.5.6-1.1.9-1.8.9s-1.3-.3-1.8-.9c-.4-.5-.6-1.2-.6-1.9h-.4c0 .8.1 1.6.3 2.4.2.9.5 1.7.9 2.3h-3.3c.8-1.3 1.2-2.9 1.2-4.7H40c0 .7-.2 1.4-.6 1.9-.5.6-1 .9-1.8.9-.7 0-1.3-.3-1.8-.9-.4-.6-.6-1.2-.6-1.9 0-.9.1-1.6.4-2.3.2-.5.6-1.2 1.2-2 .8-.9 1.5-1.9 2.3-2.8 1-1.5 1.7-2.4 1.7-2.7z"/><g><path d="M35 40.5H25v15c0 1.1.9 2 2 2h8c1.1 0 2-.9 2-2s-.9-2-2-2v-13zM13 31.5l2 8h20l2-8zM15 45.5v4h-2z"/><ellipse cx="25" cy="33.5" rx="10" ry="6"/></g></svg>